<svg width="64" height="72" viewBox="0 0 64 72" fill="none" xmlns="http://www.w3.org/2000/svg">
<path d="M43.2347 61.1008H42.8848L42.6334 61.3441L32.8929 70.7753L32.8927 70.7755C32.6652 70.9959 32.3506 71.1357 32 71.1357C31.6763 71.1357 31.3921 71.0256 31.1743 70.8466L31.031 70.7078L31.0309 70.7077L31.0247 70.7016L31.0246 70.7016L21.3668 61.3443L21.1154 61.1008H20.7653H18.8516C8.89506 61.1008 0.864341 53.2817 0.864341 43.694V18.271C0.864341 8.68362 8.89487 0.864341 18.8579 0.864341H45.1421C55.1051 0.864341 63.1357 8.68362 63.1357 18.271V43.694C63.1357 53.2815 55.1051 61.1008 45.1421 61.1008H43.2347Z" fill="#FFD666" stroke="black" stroke-width="1.72868"/>
<path d="M13.1315 38.2407L13.131 38.2401C12.4814 37.3476 13.0996 36.0833 14.2697 36.0833H48.4674C49.6376 36.0833 50.2557 37.3476 49.6061 38.2401L49.6059 38.2403C45.5773 43.7797 38.9158 47.4084 31.3717 47.4084C23.827 47.4084 17.1596 43.7854 13.1315 38.2407Z" fill="white" stroke="black" stroke-width="1.72868"/>
<path d="M14.8048 25.6294V21.0196C14.8048 18.4936 16.9082 16.4098 19.5419 16.4098C22.1755 16.4098 24.2789 18.4936 24.2789 21.0196V25.6294H14.8048Z" fill="white" stroke="black" stroke-width="1.72868"/>
<path d="M38.4645 25.6294V21.0196C38.4645 18.4936 40.568 16.4098 43.2016 16.4098C45.8352 16.4098 47.9387 18.4936 47.9387 21.0196V25.6294H38.4645Z" fill="white" stroke="black" stroke-width="1.72868"/>
</svg>
